PathFileType        4      (X/Y/Z)      C:\Users\ibrah\OneDrive - KTH\Model Validation - Orthoload\rmr-solver-1.0 - original\rmr-solver-1.0\ExperimentalData\S8R\trc\transformed_MSffkg1.trc         
DataRate	CameraRate	NumFrames	NumMarkers	Units	OrigDataRate	OrigDataStartFrame	OrigNumFrames
50.0	50.0	12	27	mm	50.0	425	566
Frame#	Time	IJ			PX			C7			T8			SC			AA			TS			AI			PC			ACv			ACd			GH			EM			EL			EM2			EL2			US			RS			US2			RS2			MCP2			MCP5			SCREWAA			SCREWTS			SCREWAI			ACvloc			ACdloc			
		X1	Y1	Z1	X2	Y2	Z2	X3	Y3	Z3	X4	Y4	Z4	X5	Y5	Z5	X6	Y6	Z6	X7	Y7	Z7	X8	Y8	Z8	X9	Y9	Z9	X10	Y10	Z10	X11	Y11	Z11	X12	Y12	Z12	X13	Y13	Z13	X14	Y14	Z14	X15	Y15	Z15	X16	Y16	Z16	X17	Y17	Z17	X18	Y18	Z18	X19	Y19	Z19	X20	Y20	Z20	X21	Y21	Z21	X22	Y22	Z22	X23	Y23	Z23	X24	Y24	Z24	X25	Y25	Z25	X26	Y26	Z26	X27	Y27	Z27	
425	8.48	-17.18373533712011	2.899859254928468	11.91589127971557	34.58367618444474	-137.0037885309182	8.062294658839166	-145.9598143827114	90.07260315681194	24.06694056158143	-214.2721048372431	-110.0394851070256	26.57323056189965	-21.63060502634405	11.87221283222794	36.55547581161555	-102.4715970149108	10.28365514307245	210.1455756380705	-171.9082932320214	1.602052877744357	139.5824468065315	-163.4274871124968	-163.3234140470751	122.9189258153775	-48.91962333339948	22.63583009987695	146.6373314578682	-89.89106204868519	46.41749216137097	187.2539659921373	-89.89106204868519	46.41749216137097	187.2539659921373	-82.88680020039746	-41.99348077229332	199.6904950488966	62.77399590059778	-290.4153831339381	236.6649817079193	71.51742144873128	-262.4219568990297	302.3887182520925													249.1093467408065	-394.7928801590464	323.7701471558628	214.9846975210168	-429.2530424238645	356.5039557402217																						
426	8.5	-19.74174922540083	3.361225426368457	11.60711593593193	32.47198897422532	-136.381715171826	7.977679550492193	-148.7646743345099	90.1450263309949	23.89250315804315	-216.4105753506996	-110.1802729573357	27.12371942687429	-24.14773972218578	12.38521900882965	36.23491937264058	-104.2934831378403	12.38718335926349	209.6319983307364	-173.7530105357247	1.498537219349096	139.4505877006051	-161.4867597713886	-163.2525257099703	124.1242507922177	-51.31872205956626	25.46353570859216	145.7965399802316	-92.6569944534867	48.60253739984547	186.3880401659645	-92.6569944534867	48.60253739984547	186.3880401659645	-83.07840575044894	-40.04950943089424	198.8570719351357	75.34339860510003	-280.2011898122125	237.811185819229	82.76295494599044	-251.0984050987512	303.1868373167534													268.8202718113685	-371.4823250424936	324.0026572662438	237.1600522786821	-407.8538104909067	357.2019070265669																						
427	8.52	-22.33268073633915	3.886989133626852	11.26942788459684	30.39739785496243	-135.6687545816823	7.911656483753675	-151.6458525327696	90.22152305052893	23.6476391738253	-218.5239503879841	-110.3457387061272	27.65428717332485	-26.70586043570827	12.96809468498297	35.88177276289622	-106.2532859716526	14.68984636051671	209.032162884421	-175.6461785943659	1.455440900746488	139.233502021957	-159.4037126420751	-163.0362866700486	125.3701328645732	-53.85994092715659	28.47003852663314	144.8796626383112	-95.59434931576396	50.95461215845736	185.4147117062887	-95.59434931576396	50.95461215845736	185.4147117062887	-83.31424270432981	-37.81269513888719	198.055528131944	87.56415344489109	-268.9323586311216	238.8115412844833	93.56608515926447	-238.7799029860759	303.8315499638026													287.4411927657922	-346.5359187917987	323.8654567893172	258.4049467033971	-384.6569502676232	357.5490998146482																						
428	8.540000000000001	-24.93997517472115	4.475918818719344	10.89807037449272	28.37527202100032	-134.8653382099885	7.854910734159565	-154.5859341539879	90.30074519024717	23.33121427478593	-220.5963220568215	-110.535330056803	28.15843344304966	-29.28837176019342	13.61882640907105	35.49158235305993	-108.3354686552203	17.15629493760786	208.3427875357766	-177.586269754321	1.461592251855285	138.9447953780722	-157.2252570749291	-162.6796518732862	126.6601884302252	-56.53600675385032	31.60632654664007	143.8718259618632	-98.68177023415119	53.43390277921307	184.329690222341	-98.68177023415119	53.43390277921307	184.329690222341	-83.59825795321709	-35.31690560244795	197.2806630677701	99.32773624651584	-256.6916290728674	239.67879893431	103.8539899744188	-225.5436743290361	304.3297522056293													304.7688137272526	-320.1137116514107	323.3513417584027	278.5069252812153	-359.7960940031586	357.5420089001939																						
429	8.56	-27.54799094533423	5.127158260003364	10.48905310210437	26.42001902883895	-133.9712929651884	7.799129519950296	-157.5683424288146	90.3814429448164	22.94155986562905	-222.6125475934108	-110.7482415522819	28.62775799379363	-31.87987883092735	14.33566466033834	35.06063415451493	-110.5265276903025	19.74754478188428	207.5613926380063	-179.5730775965661	1.503669024642654	138.5974207519297	-155.0016320961223	-162.1912578161811	127.9966236406228	-59.33982666586326	34.81997390397624	142.7605418536718	-101.8988581483321	55.99742754384209	183.1300937562918	-101.8988581483321	55.99742754384209	183.1300937562918	-83.93922498885462	-32.59980202322712	196.5273571438936	110.5338962373522	-243.5779725891936	240.4269650245348	113.5575649835661	-211.4814288455371	304.6899815305669													320.6214463557661	-292.3986828936169	322.4624210275531	297.2718556812351	-333.4322870200495	357.1837337641293																						
430	8.58	-30.14210281805197	5.840240413929677	10.03958814707662	24.54519674862892	-132.9857731525434	7.737452283294342	-160.5775557925887	90.46231194158857	22.47690298641181	-224.5581324851113	-110.983688053373	29.05241411226112	-34.46629033229372	15.11714054192615	34.58639375322509	-112.8150266452909	22.42275994508174	206.686675170759	-181.6065440593667	1.566709942494694	138.2029363404026	-152.7825074048967	-161.5827053108739	129.3801242229146	-62.26386693575015	38.05774599479943	141.5368062539477	-105.2264414112601	58.60098579256736	181.8148810041627	-105.2264414112601	58.60098579256736	181.8148810041627	-84.3499657602711	-29.70097104490514	195.7914197443237	121.0928541451995	-229.7021039226297	241.070031403042	122.6122841132643	-196.6958677713986	304.9214781259511													334.8435657789252	-263.5907306410239	321.2096066379339	314.5284059724441	-305.7485366975336	356.4833378327907																						
431	8.6	-32.70868091064765	6.614995169799757	9.548472115916509	22.76368226500409	-131.9073339154864	7.664754574720486	-163.5991527318078	90.54180614309732	21.93595805964196	-226.4190382887997	-111.2411885493353	29.4217773638037	-37.03475605147833	15.96197514511906	34.06790143446512	-115.191306236958	25.14113916229125	205.7187714147111	-183.6854320906127	1.634796850154313	137.7708537358239	-150.6130164077462	-160.8675494406982	130.8097138349433	-65.29941504799828	41.26831832708145	140.1959015097123	-108.6465871801793	61.20119374823646	180.385144317758	-108.6465871801793	61.20119374823646	180.385144317758	-84.84612771824919	-26.66005985166933	195.0701961604688	130.9271031551862	-215.1815070592914	241.6210113822852	130.9591810374744	-181.2966455432582	305.033420141267													347.3094794870882	-233.9002773437122	319.6117691311524	330.1317519009905	-276.9436722532197	355.4551863009447																						
432	8.620000000000001	-35.23496677898756	7.451359483004611	9.016368874349219	21.08785880815909	-130.7341429294718	7.57773822234789	-166.6196976670558	90.61793924365503	21.31860861378836	-228.1814565427478	-111.5208291141364	29.72526225968805	-39.57346406297822	16.86889153728792	33.5060748368225	-117.6469399159532	27.8637698708818	204.6593729857836	-185.8060005597727	1.691855501642227	137.3081128349456	-148.5300816327172	-160.0600968473368	132.2825885619628	-68.43583099642161	44.40489961405104	138.7378289141203	-112.1424008759403	63.75746077351229	178.8442253038824	-112.1424008759403	63.75746077351229	178.8442253038824	-85.44461665927801	-23.51505380940825	194.3628637902027	139.972752729858	-200.1352953740207	242.0913431492667	138.5458883425412	-165.3960380865353	305.0343837428067													357.9259576132564	-203.5418670858665	317.6946248213876	343.9663730944358	-247.2258998423165	354.1183223163489																						
433	8.64	-37.70887996640815	8.349109702777033	8.445952222267174	19.52977801789271	-129.4643123232609	7.474822247940517	-169.6264996083484	90.68810128894053	20.62658561378672	-229.8315977597679	-111.8234728819787	29.95319836555799	-42.07133920246707	17.83635162611601	32.90387521546401	-120.1740300316353	30.55531227286414	203.5116809703302	-187.9608464618259	1.722507053240785	136.8187171358236	-146.5593841296384	-159.1741379191466	133.7939501725235	-71.65989905968246	47.42754661237121	137.1673348253692	-115.6976819441446	66.23375855730646	177.1976355456964	-115.6976819441446	66.23375855730646	177.1976355456964	-86.1618190387061	-20.30082482164809	193.6703869096801	148.1803761015078	-184.6792471138265	242.4906731281073	145.3276544861557	-149.1046109421277	304.9320479715753													366.6337175617745	-172.728117134803	315.4894338380731	355.9478382967711	-216.806451070482	352.4958969242394																						
434	8.66	-40.1187963365461	9.307545250039981	7.841878257092806	18.10125632771797	-128.0963196434322	7.355853571136111	-172.6072901208545	90.748918215173	19.86403720207508	-231.3555462781191	-112.1508876127171	30.09766608132113	-44.51769639352409	18.86225028667978	32.2663028231329	-122.7644535626615	33.18538654454826	202.2802039723837	-190.138068898663	1.712894140743146	136.3035573595536	-144.7132806586465	-158.2217540573494	135.3368713778827	-74.9553832038594	50.30497702466572	135.4935340665546	-119.2965163146034	68.60004898092703	175.4527878288016	-119.2965163146034	68.60004898092703	175.4527878288016	-87.01176993527788	-17.04805452493765	192.995141834148	155.5153441385737	-168.9213534383211	242.8269846269786	151.2682522237759	-132.5271994366359	304.7331345425171													373.4077074892429	-141.6643432938842	313.0315943612937	366.0235276415813	-185.8937024089049	350.6146466339887																						
435	8.68	-42.45334254778334	10.32515892795744	7.210572600249385	16.81387105926104	-126.6294766825341	7.221680641599707	-175.5498766171854	90.79617940938691	19.0378859839831	-232.7392270884218	-112.5057679739194	30.15319318287862	-46.90190808410733	19.94360564884572	31.6002018560079	-125.4091669080654	35.72955981151853	200.9704258827743	-192.3208801689157	1.651406053018837	135.7604422426639	-142.9898905582388	-157.2123359904771	136.9022307004844	-78.30286837545569	53.01572660926327	133.7291738320035	-122.922887657524	70.83326346015137	173.6185655761427	-122.922887657524	70.83326346015137	173.6185655761427	-88.00443256768959	-13.78260145872434	192.3402656938466	161.957650479641	-152.9581855236401	243.1069977250683	156.3406968735692	-115.7595040910225	304.4435469909254													378.2561897085828	-110.5441112816336	310.3592193134784	374.1722919447082	-154.6880901102418	348.5043967655																						
436	8.700000000000001	-44.70124877562983	11.39933125168402	6.559837014522902	15.67883324333052	-125.0643993771155	7.073652987707272	-178.4418299872058	90.8248522514209	18.1578866714149	-233.9685198516705	-112.8916397237957	30.11722706055661	-49.21314369520856	21.07628626280421	30.91387492670537	-128.097666702008	38.16986367510052	199.5883857895031	-194.4877441095483	1.529236749386051	135.184343061292	-141.3734654310675	-156.1519283499949	138.4787520219878	-81.67993844051209	55.5485538461543	131.8896161917201	-126.5603809722836	72.91776489219181	171.7047774301628	-126.5603809722836	72.91776489219181	171.7047774301628	-89.14425091817903	-10.52533876338741	191.7088176899473	167.5012545698608	-136.872330688775	243.3367387933641	160.5277076071186	-98.88556601643914	304.0686544467814													381.2186840672942	-79.54588145124188	307.511776589231	380.4031018257958	-123.3780653357869	346.1975606142337																						
